<?xml version="1.0" encoding="utf-8"?>
<!-- Generator: Adobe Illustrator 16.0.3, SVG Export Plug-In . SVG Version: 6.00 Build 0)  -->
<!DOCTYPE svg PUBLIC "-//W3C//DTD SVG 1.1//EN" "http://www.w3.org/Graphics/SVG/1.1/DTD/svg11.dtd">
<svg version="1.1" id="Layer_1" xmlns="http://www.w3.org/2000/svg" xmlns:xlink="http://www.w3.org/1999/xlink" x="0px" y="0px"
	 width="37.667px" height="39.275px" viewBox="-2.733 0 37.667 39.275" enable-background="new -2.733 0 37.667 39.275"
	 xml:space="preserve">
<path d="M9.771,15.277v1.049c0,0.419-0.174,0.714-0.522,0.884c-0.115,0.051-0.228,0.075-0.335,0.075
	c-0.24,0-0.441-0.095-0.603-0.285L1.453,9.324C1.284,9.135,1.199,8.909,1.199,8.65s0.085-0.485,0.254-0.674l6.857-7.675
	C8.569-0.01,8.882-0.08,9.248,0.091c0.349,0.17,0.522,0.465,0.522,0.885V2.01L4.453,7.976C4.284,8.164,4.199,8.391,4.199,8.65
	s0.085,0.485,0.254,0.675L9.771,15.277z M25.199,15.846c0,0.58-0.076,1.247-0.228,2.001c-0.152,0.754-0.324,1.443-0.517,2.068
	c-0.191,0.625-0.405,1.249-0.643,1.874s-0.418,1.077-0.543,1.356l-0.269,0.6C22.931,23.915,22.806,24,22.626,24
	c-0.054,0-0.094-0.005-0.12-0.015c-0.224-0.08-0.325-0.25-0.309-0.51c0.384-3.998-0.089-6.821-1.42-8.471
	c-0.571-0.709-1.332-1.262-2.283-1.655c-0.951-0.396-2.146-0.657-3.583-0.787v3.763c0,0.419-0.174,0.714-0.521,0.884
	c-0.116,0.051-0.229,0.075-0.335,0.075c-0.241,0-0.442-0.095-0.604-0.285L6.596,9.324C6.426,9.135,6.342,8.909,6.342,8.65
	s0.084-0.485,0.254-0.674l6.856-7.675c0.26-0.311,0.572-0.381,0.938-0.21c0.348,0.17,0.521,0.465,0.521,0.885v3.927
	c3.67,0.28,6.345,1.384,8.022,3.313C24.444,9.945,25.199,12.488,25.199,15.846L25.199,15.846z"/>
<text transform="matrix(1 0 0 1 -3.8008 32.4436)" font-family="'Roboto-Regular'" font-size="10">Reply all</text>
</svg>
